<?xml version="1.0"?>
<svg width="109" height="28" xmlns="http://www.w3.org/2000/svg" xmlns:svg="http://www.w3.org/2000/svg">
 <g class="layer">
  <title>Layer 1</title>
  <path d="m10.6,8.55c1.83,0 3.32,-1.49 3.32,-3.33c0,-1.83 -1.49,-3.32 -3.32,-3.32c-1.84,0 -3.33,1.49 -3.33,3.32c0,1.84 1.49,3.33 3.33,3.33z" fill="#965EEB" id="svg_1"/>
  <path d="m22.25,14.47c3.99,0 7.23,-3.24 7.23,-7.23c0,-4 -3.24,-7.24 -7.23,-7.24c-4,0 -7.24,3.24 -7.24,7.24c0,3.99 3.24,7.23 7.24,7.23z" fill="#00AAFF" id="svg_2"/>
  <path d="m8.9,27.5c4.92,0 8.9,-3.98 8.9,-8.9c0,-4.92 -3.98,-8.9 -8.9,-8.9c-4.92,0 -8.9,3.98 -8.9,8.9c0,4.92 3.98,8.9 8.9,8.9z" fill="#04E061" id="svg_3"/>
  <path d="m24.32,26.38c2.97,0 5.38,-2.41 5.38,-5.38c0,-2.96 -2.41,-5.37 -5.38,-5.37c-2.96,0 -5.37,2.41 -5.37,5.37c0,2.97 2.41,5.38 5.37,5.38z" fill="#FF4053" id="svg_4"/>
  <path d="m41.36,1.63l-9.36,24.44l5.03,0l1.92,-5.11l9.94,0l1.93,5.11l4.99,0l-9.31,-24.44l-5.15,0l0.01,0zm-0.68,14.85l3.27,-8.6l3.25,8.6l-6.52,0zm21.14,3.29l-4.06,-10.88l-4.8,0l6.54,17.18l4.75,0l6.44,-17.17l-4.8,0l-4.06,10.87l-0.01,0zm14.9,-10.88l-4.57,0l0,17.18l4.56,0l0,-17.17l0.01,-0.01zm-2.3,-1.23c0.45,0.02 0.9,-0.05 1.33,-0.2c0.42,-0.16 0.81,-0.4 1.14,-0.71c0.33,-0.31 0.59,-0.69 0.77,-1.1c0.18,-0.42 0.27,-0.87 0.27,-1.32c0,-0.45 -0.09,-0.9 -0.27,-1.32c-0.18,-0.41 -0.44,-0.79 -0.77,-1.1c-0.33,-0.31 -0.72,-0.55 -1.14,-0.71c-0.43,-0.15 -0.88,-0.22 -1.33,-0.2c-0.85,0.05 -1.65,0.42 -2.24,1.04c-0.58,0.62 -0.91,1.44 -0.91,2.29c0,0.85 0.33,1.67 0.91,2.29c0.59,0.62 1.39,0.99 2.24,1.04zm11.34,-3.34l-4.56,0l0,4.55l-2.67,0l0,4.14l2.67,0l0,7.29c0,4.13 2.28,5.93 5.49,5.93c1.08,0.01 2.15,-0.2 3.15,-0.62l0,-4.27c-0.54,0.21 -1.11,0.3 -1.7,0.32c-1.39,0 -2.4,-0.55 -2.4,-2.41l0,-6.24l4.1,0l0,-4.11l-4.1,0l0,-4.58l0.02,0zm13.7,4.27c-1.76,-0.01 -3.48,0.51 -4.95,1.49c-1.46,0.98 -2.61,2.37 -3.28,3.99c-0.9,2.18 -0.9,4.63 0,6.81c0.9,2.18 2.62,3.91 4.8,4.82c1.08,0.45 2.24,0.68 3.41,0.69c1.75,-0.02 3.45,-0.55 4.9,-1.53c1.45,-0.98 2.58,-2.37 3.24,-3.99c0.67,-1.61 0.84,-3.39 0.51,-5.11c-0.34,-1.71 -1.18,-3.29 -2.41,-4.54c-1.65,-1.66 -3.89,-2.61 -6.23,-2.63l0.01,0zm0,13.23c-0.64,0.01 -1.27,-0.13 -1.85,-0.41c-0.58,-0.27 -1.1,-0.67 -1.5,-1.16c-0.41,-0.5 -0.7,-1.07 -0.86,-1.7c-0.16,-0.62 -0.17,-1.27 -0.05,-1.89c0.17,-0.85 0.58,-1.62 1.18,-2.23c0.61,-0.6 1.38,-1.02 2.22,-1.19c0.84,-0.16 1.71,-0.08 2.51,0.25c0.79,0.33 1.46,0.88 1.94,1.6c0.48,0.71 0.73,1.55 0.73,2.41c0,0.56 -0.11,1.13 -0.33,1.65c-0.22,0.53 -0.54,1 -0.94,1.4c-0.4,0.4 -0.88,0.72 -1.4,0.94c-0.53,0.22 -1.09,0.33 -1.66,0.33l0,0l0.01,0z" fill="#ffffff" id="svg_5"/>
 </g>
</svg>